<?xml version="1.0" encoding="UTF-8" standalone="no"?>
<!DOCTYPE svg PUBLIC "-//W3C//DTD SVG 1.1//EN" "http://www.w3.org/Graphics/SVG/1.1/DTD/svg11.dtd">
<svg version="1.1" xmlns="http://www.w3.org/2000/svg" xmlns:xlink="http://www.w3.org/1999/xlink" preserveAspectRatio="xMidYMid meet" viewBox="0 15 150 165" width="150" height="150"><defs><path d="M25 48.86L31.82 28.41L39.77 9.09L60.23 13.64L63.64 36.36L70.45 55.68L89.77 48.86L97.73 29.55L96.59 9.09L117.05 7.95L120.45 28.41L121.59 48.86L132.95 65.91L134.09 86.36L134.09 106.82L128.41 126.14L109.09 135.23L87.5 138.64L67.05 142.05L46.59 142.05L26.14 137.5L15.91 119.32L18.18 98.86L20.45 78.41L23.86 57.95" id="ee486rrQ0"></path><path d="M70.31 84.59C70.31 92.11 64.71 98.22 57.81 98.22C50.91 98.22 45.31 92.11 45.31 84.59C45.31 77.06 50.91 70.95 57.81 70.95C64.71 70.95 70.31 77.06 70.31 84.59Z" id="d1frAdml7I"></path><path d="M117.51 79.32C117.51 86.23 112.92 91.84 107.28 91.84C101.63 91.84 97.05 86.23 97.05 79.32C97.05 72.41 101.63 66.8 107.28 66.8C112.92 66.8 117.51 72.41 117.51 79.32Z" id="auRI57dmd"></path><path d="M39.77 111.36L60.23 111.36L81.82 111.36L102.27 109.09L121.59 102.27L112.5 120.45L93.18 126.14L72.73 130.68L51.14 130.68L38.64 114.77" id="bc6JFFBh5"></path><path d="M75 111.35L95.45 111.35L95.45 121.55L75 121.55L75 111.35Z" id="cg138PUj"></path></defs><g><g><g><use xlink:href="#ee486rrQ0" opacity="1" fill="#e15f10" fill-opacity="1"></use><g><use xlink:href="#ee486rrQ0" opacity="1" fill-opacity="0" stroke="#000000" stroke-width="1" stroke-opacity="1"></use></g></g><g><use xlink:href="#d1frAdml7I" opacity="1" fill="#030b23" fill-opacity="1"></use></g><g><use xlink:href="#auRI57dmd" opacity="1" fill="#060827" fill-opacity="1"></use></g><g><use xlink:href="#bc6JFFBh5" opacity="1" fill="#e41e5f" fill-opacity="1"></use><g><use xlink:href="#bc6JFFBh5" opacity="1" fill-opacity="0" stroke="#000000" stroke-width="1" stroke-opacity="1"></use></g></g><g><use xlink:href="#cg138PUj" opacity="1" fill="#f2e7e9" fill-opacity="1"></use></g></g></g></svg>